# xmcd
#
# Track frame offsets:
#	150
#	15088
#	35215
#	54379
#	70783
#	86743
#	106330
#	122150
#	142490
#	169059
#	195303
#	210952
#
# Disc length: 3185 seconds
#
# Revision: 0
# Processed by: cddbd v1.5.2PL0 Copyright (c) Steve Scherf et al.
# Submitted via: audiograbber 1.83.01
#
DISCID=a20c6f0c
DTITLE=Whiskey Myers - Early Morning Shakes
DYEAR=2014
DGENRE=Southern Rock
TTITLE0=Early Morning Shakes
TTITLE1=Hard Row To Hoe
TTITLE2=Dogwood
TTITLE3=Shelter From The Rain
TTITLE4=Home
TTITLE5=Headstone
TTITLE6=Where The Sun Don't Shine
TTITLE7=Reckoning
TTITLE8=Wild Baby Shake Me
TTITLE9=Lightning
TTITLE10=Need A Little Off For Bad Behavior
TTITLE11=Colloquy
EXTD=
EXTT0=
EXTT1=
EXTT2=
EXTT3=
EXTT4=
EXTT5=
EXTT6=
EXTT7=
EXTT8=
EXTT9=
EXTT10=
EXTT11=
PLAYORDER=
